<?xml version="1.0" standalone="no"?>
<!DOCTYPE svg PUBLIC "-//W3C//DTD SVG 20010904//EN"
 "http://www.w3.org/TR/2001/REC-SVG-20010904/DTD/svg10.dtd">
<svg version="1.0" xmlns="http://www.w3.org/2000/svg"
 width="176.000000pt" height="176.000000pt" viewBox="0 0 176.000000 176.000000"
 preserveAspectRatio="xMidYMid meet">
<metadata>
Created by potrace 1.14, written by Peter Selinger 2001-2017
</metadata>
<g transform="translate(0.000000,176.000000) scale(0.100000,-0.100000)"
fill="#000000" stroke="none">
<path d="M0 880 l0 -880 880 0 880 0 0 880 0 880 -880 0 -880 0 0 -880z m879
767 c8 -16 11 -100 9 -287 l-3 -265 -23 135 c-27 162 -33 453 -8 444 7 -3 18
-15 25 -27z m299 -139 c-3 -87 -8 -122 -23 -153 l-20 -40 -3 85 c-4 108 14
220 35 220 12 0 14 -18 11 -112z m-111 -15 c-3 -69 -12 -130 -25 -168 l-20
-60 -1 149 c-1 126 2 152 16 168 31 34 36 21 30 -89z m-278 -233 l0 -55 -25
69 c-19 56 -24 89 -23 165 l1 96 23 -110 c13 -60 24 -135 24 -165z m462 137
c-13 -13 -15 24 -3 63 6 22 7 21 10 -14 2 -21 -1 -43 -7 -49z m-810 30 c28
-19 35 -30 37 -65 2 -23 -1 -42 -6 -42 -4 0 -27 16 -50 36 -32 27 -42 43 -42
65 0 35 15 37 61 6z m268 -169 c13 -40 21 -84 19 -110 l-3 -43 -32 49 c-31 47
-33 54 -33 140 1 102 4 100 49 -36z m627 49 c0 -30 -8 -39 -96 -101 l-95 -68
-3 48 c-3 44 0 51 30 76 39 33 125 78 148 78 11 0 16 -10 16 -33z m-850 -70
c46 -42 64 -66 64 -84 l0 -24 -39 21 c-21 12 -63 42 -95 67 -49 39 -56 49 -56
79 l0 35 31 -18 c17 -10 60 -44 95 -76z m-78 -74 c39 -29 72 -60 72 -69 0 -19
-24 -13 -105 30 -56 29 -60 34 -63 70 -4 44 -9 46 96 -31z m932 8 c0 -19 -42
-56 -97 -85 -40 -20 -43 -20 -43 2 0 18 39 53 95 84 39 22 45 22 45 -1z
m-1003 -95 c30 -20 44 -46 24 -46 -4 0 -31 10 -60 21 -45 19 -51 25 -51 51 l0
30 28 -18 c15 -9 42 -27 59 -38z m999 -75 c-16 -17 -95 -60 -150 -81 -24 -9
-26 -7 -26 20 0 27 8 34 93 79 l92 50 3 -25 c2 -14 -4 -34 -12 -43z m224 20
c0 -10 -24 -21 -46 -21 -8 0 -14 7 -14 15 0 10 10 15 30 15 17 0 30 -4 30 -9z
m-40 -110 c0 -34 -6 -37 -100 -50 -69 -9 -73 -9 -76 14 -3 21 14 32 76 48 87
24 100 22 100 -12z m-1010 -9 c0 -11 -14 -25 -35 -35 -19 -9 -64 -34 -101 -57
-36 -22 -69 -40 -73 -40 -9 0 -6 54 4 69 9 16 62 42 125 62 70 23 80 23 80 1z
m60 -101 c0 -32 -29 -55 -148 -115 l-72 -36 0 34 c0 30 6 39 45 66 49 34 143
80 163 80 7 0 12 -12 12 -29z m960 -11 c0 -25 -4 -30 -25 -30 -14 0 -41 -7
-60 -14 l-35 -15 0 34 c0 30 4 36 28 41 15 3 32 7 37 9 6 2 20 4 33 4 18 1 22
-4 22 -29z m-225 -84 c51 -28 60 -37 63 -64 2 -18 0 -32 -4 -32 -3 0 -35 20
-70 46 -41 29 -64 52 -64 65 0 25 5 24 75 -15z m-705 -50 c0 -49 -3 -57 -29
-76 -36 -25 -146 -76 -183 -84 -28 -6 -28 -6 -28 43 l0 50 113 60 c61 34 115
61 120 61 4 0 7 -24 7 -54z m424 -5 c-6 -6 -24 19 -24 34 1 6 7 1 15 -9 8 -11
12 -22 9 -25z m222 -47 c49 -34 64 -51 64 -70 0 -13 -2 -24 -5 -24 -3 0 -35
13 -70 29 -64 30 -65 30 -65 70 0 23 3 41 6 41 4 0 35 -20 70 -46z m-262 -47
c12 -35 16 -87 16 -197 0 -144 -1 -150 -25 -177 l-24 -28 -1 235 c0 139 4 230
9 225 5 -6 16 -32 25 -58z m-238 -249 c-9 -99 -16 -188 -16 -199 0 -10 -4 -19
-10 -19 -6 0 -10 71 -10 192 0 177 2 197 23 247 l22 55 3 -49 c2 -26 -4 -129
-12 -227z m89 -196 c-3 -12 -10 -22 -15 -22 -15 0 -12 324 3 417 12 76 12 73
15 -147 1 -124 0 -235 -3 -248z m-325 333 c0 -26 -23 -76 -59 -130 l-21 -30 0
77 c0 74 1 78 28 92 39 22 52 19 52 -9z m75 -83 c-49 -89 -55 -94 -55 -46 0
39 7 54 59 124 25 33 26 34 29 12 2 -12 -13 -53 -33 -90z m670 98 c8 -13 -5
-13 -25 0 -13 8 -13 10 2 10 9 0 20 -4 23 -10z m-95 -30 c24 -18 25 -24 28
-142 2 -68 2 -121 -1 -118 -11 11 -67 220 -67 249 0 36 6 38 40 11z m147 -121
c2 -62 1 -63 -12 -34 -18 39 -20 108 -2 103 7 -3 13 -28 14 -69z m-188 -78 c6
-19 11 -49 11 -67 0 -27 -3 -31 -20 -27 -18 5 -20 14 -20 76 0 73 8 78 29 18z
m-539 -26 c0 -24 -5 -35 -15 -35 -18 0 -19 11 -3 45 15 33 18 32 18 -10z"/>
</g>
</svg>
